<?xml version="1.0" encoding="utf-8"?>
<!-- Generator: Adobe Illustrator 16.0.0, SVG Export Plug-In . SVG Version: 6.00 Build 0)  -->
<!DOCTYPE svg PUBLIC "-//W3C//DTD SVG 1.1//EN" "http://www.w3.org/Graphics/SVG/1.1/DTD/svg11.dtd">
<svg version="1.1" id="Layer_1" xmlns="http://www.w3.org/2000/svg" xmlns:xlink="http://www.w3.org/1999/xlink" x="0px" y="0px"
	 width="53.998px" height="54px" viewBox="0 0 53.998 54" enable-background="new 0 0 53.998 54" xml:space="preserve">
<g>
	<path fill="#007BB6" d="M50.004,0H3.985C1.787,0,0,1.744,0,3.894v46.209C0,52.254,1.787,54,3.985,54h46.019
		c2.203,0,3.994-1.746,3.994-3.896V3.894C53.998,1.744,52.207,0,50.004,0z"/>
	<path fill="#FFFFFF" d="M8.003,20.244h8.012v25.77H8.003V20.244z M12.009,7.434c2.561,0,4.642,2.081,4.642,4.646
		c0,2.563-2.081,4.644-4.642,4.644c-2.566,0-4.642-2.081-4.642-4.644C7.367,9.515,9.442,7.434,12.009,7.434"/>
	<path fill="#FFFFFF" d="M21.038,20.244h7.682v3.524h0.11c1.069-2.027,3.682-4.162,7.578-4.162c8.11,0,9.607,5.335,9.607,12.274
		v14.134H38.01V33.481c0-2.989-0.053-6.833-4.162-6.833c-4.168,0-4.804,3.258-4.804,6.618v12.747h-8.006V20.244z"/>
</g>
</svg>
